<?xml version="1.0" encoding="utf-8"?>
<!-- Generator: Adobe Illustrator 19.0.0, SVG Export Plug-In . SVG Version: 6.00 Build 0)  -->
<svg version="1.1" id="Layer_1" xmlns="http://www.w3.org/2000/svg" xmlns:xlink="http://www.w3.org/1999/xlink" x="0px" y="0px"
	 viewBox="0 0 424 381" style="enable-background:new 0 0 424 381;" xml:space="preserve">
<path d="M6.8,118.6c1.3-7.7,2.1-15.6,4.1-23.1c10.3-38.7,32.6-67.5,71.4-80.2C123,2,159.4,11.2,189.2,42.6
	c8.5,9,15.3,19.7,23.1,29.7c0.6-0.9,1.5-2.6,2.5-4.2c12.1-20.3,27.5-37.4,48.9-48.1c25.7-12.9,52.5-13.8,79.1-4.2
	c38.8,14.1,61,43.3,70.2,82.7c8.9,38.3,0,73.4-21.3,105.8c-18.3,27.8-41.8,50.8-66.5,72.6c-34.6,30.5-69.7,60.4-104.6,90.6
	c-5.8,5-11.9,5.4-17.3,0.7c-40-34.8-80.2-69.4-119.9-104.7c-19.4-17.3-37-36.5-51.4-58.3C18.7,184.9,9.4,163,7.4,138.5
	c-0.1-0.8-0.4-1.5-0.6-2.3C6.8,130.3,6.8,124.5,6.8,118.6z M211.5,343.5c0.7-0.4,1-0.6,1.3-0.9c36.1-31.4,72.5-62.5,108.2-94.4
	c21.1-18.8,40.5-39.5,55-64.1c14.6-24.7,20.3-51.2,13.9-79.5c-7.1-31.3-24.1-55-55.2-66.2c-21.6-7.8-42.9-6.5-63.3,4.9
	c-17.1,9.6-29,24-38.1,41c-4.1,7.7-7.1,16-10.7,24c-2.1,4.7-5.8,7.3-11,7.3c-5,0-8.6-2.3-10.8-6.9c-0.8-1.7-1.4-3.4-2.1-5.2
	c-7.2-18.4-16.8-35.3-31.4-49C132.6,21.9,79.9,29.4,53.4,63c-26.8,34-29.2,71.5-11.7,110.5c9.1,20.3,23.4,37.1,38.6,53.2
	c22.6,23.9,47.6,45.1,72.5,66.5C172.2,309.9,191.8,326.6,211.5,343.5z"/>
</svg>
